<?xml version="1.0" encoding="UTF-8"?>
<svg xmlns="http://www.w3.org/2000/svg" viewBox="0 0 342.68 76.55">
  <path fill="#000000" d="m159.65,1.14l-74.27,74.27h-30.9l28.89-28.89h-23.6l-28.89,28.89H0L74.27,1.14h30.9l-27.31,27.31h23.6L128.76,1.14h30.9Z"/>
  <path fill="#000000" d="m161.19,48.42l-26.99,26.99h-31.34L177.13,1.14h42.99c10.72,0,17.96.91,21.72,2.72,3.76,1.81,5.41,4.59,4.95,8.32-.47,3.74-3.02,7.93-7.67,12.57-7.07,7.07-16.13,12.79-27.17,17.14-11.04,4.35-22.14,6.53-33.3,6.53h-17.48Zm15.5-15.94h10.32c9.09,0,16.11-2.47,21.04-7.4,4.64-4.64,2.76-6.96-5.64-6.96h-11.36l-14.36,14.36Z"/>
  <path fill="#000000" d="m328.53,33.79l-41.62,41.62h-15.12c1.85-3.08,3.1-5.68,3.72-7.78-12.19,5.95-24.41,8.92-36.65,8.92-12.98,0-20.3-3.35-21.96-10.04-1.67-6.69,3.21-15.75,14.64-27.18,11.1-11.1,24.47-20.43,40.12-27.99,15.65-7.56,31.46-11.34,47.44-11.34,11.99,0,19.4,2.25,22.23,6.75,2.83,4.5,1.19,10.88-4.92,19.15l-32.11,2.18c6.25-7.73,5.52-11.59-2.2-11.59-10.13,0-22.3,7.11-36.52,21.33-8.6,8.6-12.64,14.26-12.14,17,.51,2.74,3.07,4.11,7.69,4.11,3.74,0,7.75-.83,12.05-2.5,4.3-1.67,7.92-3.95,10.87-6.86h-16.66l15.78-15.78h45.35Z"/>
</svg> 